# xmcd
# 
# Track frame offsets:
#     150
#     18378
#     39558
#     63188
#     81023
#     98705
#     113480
#     135720
#     153055
#     178428
#     206680
#     232335
#     262858
#     286550
# 
# Disc length: 4046
# 
# Revision: 76
# Processed by: cddbd v1.5.2PL0 Copyright (c) Steve Scherf et al.
# Submitted via: BonkEnc v1.0
# 
DISCID=b30fcc0e
DTITLE=Elton John - The Very Best Of - CD1
DYEAR=1990
DGENRE=Pop
TTITLE0=Your Song
TTITLE1=Rocket Man (I Think It's Going To Be A Long, Long Time)
TTITLE2=Honky Cat
TTITLE3=Crocodile Rock
TTITLE4=Daniel
TTITLE5=Goodbye Yellow Brick Road
TTITLE6=Saturday Night's Alright For Fighting
TTITLE7=Candle In The Wind
TTITLE8=Don't Let The Sun Go Down On Me
TTITLE9=Lucy In The Sky With Diamonds
TTITLE10=Philadelphia Freedom
TTITLE11=Someone Saved My Life Tonight
TTITLE12=Pinball Wizard
TTITLE13=The Bitch Is Back
EXTD=Polygram, YEAR: 1990
EXTT0=
EXTT1=
EXTT2=
EXTT3=
EXTT4=
EXTT5=
EXTT6=
EXTT7=
EXTT8=
EXTT9=
EXTT10=
EXTT11=
EXTT12=
EXTT13=
PLAYORDER=
